<svg xmlns:xlink="http://www.w3.org/1999/xlink" xmlns="http://www.w3.org/2000/svg" id="system_icons" data-name="system icons" viewBox="0 0 64 124.71" width="64" height="124.71"><defs><style>.cls-1,.cls-2{fill:#164d81;}.cls-1{stroke:#164d81;stroke-miterlimit:10;stroke-width:3px;}</style></defs><line class="cls-1" x1="52.44" y1="109.63" x2="52.78" y2="110.1"></line><line class="cls-1" x1="57.27" y1="116.25" x2="60.2" y2="120.28"></line><line class="cls-1" x1="62.45" y1="123.36" x2="62.79" y2="123.82"></line><line class="cls-1" x1="42.22" y1="109.63" x2="42.41" y2="110.16"></line><line class="cls-1" x1="44.64" y1="116.26" x2="46.09" y2="120.25"></line><line class="cls-1" x1="47.2" y1="123.3" x2="47.39" y2="123.82"></line><line class="cls-1" x1="32" y1="109.63" x2="32" y2="110.19"></line><line class="cls-1" x1="32" y1="116.26" x2="32" y2="120.23"></line><line class="cls-1" x1="32" y1="123.27" x2="32" y2="123.82"></line><line class="cls-1" x1="21.78" y1="109.63" x2="21.59" y2="110.16"></line><line class="cls-1" x1="19.36" y1="116.26" x2="17.91" y2="120.25"></line><line class="cls-1" x1="16.8" y1="123.3" x2="16.61" y2="123.82"></line><line class="cls-1" x1="11.56" y1="109.63" x2="11.22" y2="110.1"></line><line class="cls-1" x1="6.73" y1="116.25" x2="3.8" y2="120.28"></line><line class="cls-1" x1="1.55" y1="123.36" x2="1.21" y2="123.82"></line><path class="cls-2" d="M973.38,273.72v19.8c0,2.17-1.66,6.3-3.71,6.3H937.56c-2,0-3.72-4.13-3.72-6.3v-19.8Z" transform="translate(-921.4 -273.72)"></path><rect class="cls-2" x="14.45" y="23.1" width="35.53" height="17.19"></rect><polyline class="cls-2" points="41.29 40.29 41.29 47.79 23.14 47.79 23.14 40.29"></polyline><polyline class="cls-2" points="23.14 92.72 23.14 79.97 41.29 79.97 41.29 92.72"></polyline><polygon class="cls-2" points="46.47 92.72 56.52 102.86 48.27 102.86 39.92 97.79 36.21 102.86 28.22 102.86 24.51 97.79 16.16 102.86 7.91 102.86 17.95 92.72 46.47 92.72"></polygon><path class="cls-2" d="M962.69,362.1c29.81-16.51,20-50.54,8.69-56.48V314c4.92,8.4,3.62,33-8.69,39.68Z" transform="translate(-921.4 -273.72)"></path><path class="cls-2" d="M945.73,362.07c-29.81-16.51-20-50.54-8.69-56.48V314c-4.92,8.4-3.62,33,8.69,39.68Z" transform="translate(-921.4 -273.72)"></path><rect class="cls-2" x="28" y="46.04" width="8.43" height="33.8"></rect></svg>