<svg xmlns:xlink="http://www.w3.org/1999/xlink" xmlns="http://www.w3.org/2000/svg" id="system_icons" data-name="system icons" viewBox="0 0 146.97 82.55" width="146.97" height="82.55"><defs><style>.cls-1{fill:#164d81;}</style></defs><path class="cls-1" d="M1517.93,292.55v82.56h147V292.55Zm47,67h-24.39V311.38h23.79v7.19h-16.78v12.36h14.21v7.19h-14.21v14.27H1565Zm26.52,0-4.83-11.38c-1-2.45-2-4.9-3.17-7.85h-.24c-1,2.95-2,5.4-2.93,7.85l-4.69,11.38h-7.44l11.22-24.86-10.52-23.35h7.78l4.4,10.7c1,2.21,1.79,4.45,3,7.37h.24c1-2.92,1.79-5.16,2.66-7.37l4.18-10.7h7.44l-10.51,23.76,11.21,24.45Zm20,0h-7V311.38h7Zm35.75-41h-11.41v41h-7v-41h-11.41v-7.19h29.83Z" transform="translate(-1517.93 -292.55)"></path></svg>