<svg xmlns:xlink="http://www.w3.org/1999/xlink" xmlns="http://www.w3.org/2000/svg" id="system_icons" data-name="system icons" viewBox="0 0 101 128.25" width="101" height="128.25"><defs><style>.cls-1,.cls-3{fill:#164d81;}.cls-1,.cls-2{stroke:#164d81;stroke-linecap:round;stroke-linejoin:round;stroke-width:4px;}.cls-2{fill:none;}</style></defs><path class="cls-1" d="M1273.61,308.39A19.64,19.64,0,0,1,1293.25,328v71.75H1246V328a19.64,19.64,0,0,1,19.64-19.64Z" transform="translate(-1208.41 -273.52)"></path><path class="cls-1" d="M1280.69,309.71h0v-6.93a4.28,4.28,0,0,0-4.27-4.28h-2.18" transform="translate(-1208.41 -273.52)"></path><path class="cls-1" d="M1265,298.5h-2.18a4.28,4.28,0,0,0-4.28,4.28v6.93h0" transform="translate(-1208.41 -273.52)"></path><path class="cls-1" d="M1276.28,293.69a6.68,6.68,0,1,0-6.68,6.69A6.69,6.69,0,0,0,1276.28,293.69Z" transform="translate(-1208.41 -273.52)"></path><path class="cls-1" d="M1265.38,288.52v-.85a4.13,4.13,0,0,0-4.13-4.13,2.74,2.74,0,0,1-2.74-2.74v-5.28h48.9a4.13,4.13,0,0,1-3.72,4.11L1279.35,282l-5.53,6.5" transform="translate(-1208.41 -273.52)"></path><path class="cls-1" d="M1276.28,285.63l16.49,1.07a21.91,21.91,0,0,1,8.94,2.58l.06,0a10.75,10.75,0,0,1,5.64,9.46l-6-3.57a10.82,10.82,0,0,0-5.49-1.51h-19.63" transform="translate(-1208.41 -273.52)"></path><line class="cls-2" x1="10.15" y1="78.33" x2="10.15" y2="78.33"></line><path class="cls-2" d="M1226.76,346.08h0l5.71-34.61a18,18,0,0,1,17.8-15.09h13.21" transform="translate(-1208.41 -273.52)"></path><path class="cls-3" d="M1219.17,346.07l5.92-35.82a25.44,25.44,0,0,1,25.18-21.37H1265l-2.18,9.62s-2.44-2.13-7.48-2.13-8.3-1-12.45,1.57-9.77,9.75-10.39,13.52-5.71,34.61-5.71,34.61h-7.59" transform="translate(-1208.41 -273.52)"></path><polygon class="cls-1" points="18.34 72.54 18.75 83.78 9.57 83.78 10.76 72.54 18.34 72.54"></polygon><polyline class="cls-1" points="18.75 83.78 26.32 110.22 2 110.22 9.57 83.78"></polyline><rect class="cls-3" x="51.62" y="25.98" width="18.43" height="10.54"></rect></svg>