<svg xmlns:xlink="http://www.w3.org/1999/xlink" xmlns="http://www.w3.org/2000/svg" id="system_icons" data-name="system icons" viewBox="0 0 111.76 130.35" width="111.76" height="130.35"><defs><style>.cls-1,.cls-2{fill:#164d81;}.cls-1{fill-rule:evenodd;}</style></defs><path class="cls-1" d="M343.78,331.26a41.84,41.84,0,1,0-41.84,41.84,41.84,41.84,0,0,0,41.84-41.84m-53,0a11.19,11.19,0,1,1,11.19,11.19,11.19,11.19,0,0,1-11.19-11.19" transform="translate(-260.1 -268.04)"></path><path class="cls-1" d="M361.25,335.4a10.12,10.12,0,0,0-5.64,18.52A37.47,37.47,0,0,1,321,384.23v-6.79a50,50,0,0,1-38.16,0v16.35a4.6,4.6,0,0,0,4.6,4.6h29a4.6,4.6,0,0,0,4.6-4.6v-.66a46.38,46.38,0,0,0,43.41-38,10.12,10.12,0,0,0-3.18-19.72" transform="translate(-260.1 -268.04)"></path><path class="cls-2" d="M371.85,311l-4.31-.1a40.19,40.19,0,0,0-31.31-38.66L337,268A44.68,44.68,0,0,1,371.85,311Z" transform="translate(-260.1 -268.04)"></path><path class="cls-2" d="M360.86,310.79l-4.32-.1a28.68,28.68,0,0,0-22.35-27.6l.8-4.25A33.22,33.22,0,0,1,360.86,310.79Z" transform="translate(-260.1 -268.04)"></path><path class="cls-2" d="M349.86,310.54l-4.31-.1a17.2,17.2,0,0,0-13.4-16.54l.8-4.25A21.7,21.7,0,0,1,349.86,310.54Z" transform="translate(-260.1 -268.04)"></path></svg>