<svg xmlns:xlink="http://www.w3.org/1999/xlink" xmlns="http://www.w3.org/2000/svg" id="system_icons" data-name="system icons" viewBox="0 0 145.82 127.94" width="145.82" height="127.94"><defs><style>.cls-1,.cls-3{fill:#164d81;stroke:#164d81;stroke-linecap:round;stroke-linejoin:round;}.cls-1{stroke-width:2.09px;}.cls-2{fill:#fff;}.cls-3{stroke-width:5.87px;}</style></defs><path class="cls-1" d="M1996.38,529.87a13.12,13.12,0,0,1-11.27-6.4,12.69,12.69,0,0,1,0-12.8L2044,410.42a13.11,13.11,0,0,1,22.53,0l58.86,100.25a12.64,12.64,0,0,1,0,12.8,13.1,13.1,0,0,1-11.27,6.4Z" transform="translate(-1982.33 -402.97)"></path><path class="cls-2" d="M1996.38,521.89a4.92,4.92,0,0,1-4.24-2.41,4.78,4.78,0,0,1,0-4.82L2051,414.41a4.93,4.93,0,0,1,8.48,0l58.85,100.25a4.73,4.73,0,0,1,0,4.82,4.91,4.91,0,0,1-4.24,2.41Z" transform="translate(-1982.33 -402.97)"></path><path class="cls-3" d="M2050,524.78c-14.46,0-49-4.95-22.42-51.49,0,0-1.45,20.28,12.05,25.74,0,0-5.3-8.82-2.41-18.86s19.84-32.75,11.61-47.32c0,0,17.81,7.12,18.29,48.37,0,0,10.61-5.29,10.13-15.86,0,0,9.68,17.45,0,31.2,0,0,14.45,2.65,17.83-4.23,0,0,2.25,32.45-28.94,32.45,0,0-10-4.42,1-25.57-4.82,4.49-17.72,9-14.95-22.48,0,0-9.85,23.53-1.68,34.64,0,0-8.28,5.89-19.13-6.27-.49,6.61,7.19,18.23,18.64,19.68" transform="translate(-1982.33 -402.97)"></path></svg>