<svg xmlns:xlink="http://www.w3.org/1999/xlink" xmlns="http://www.w3.org/2000/svg" id="system_icons" data-name="system icons" viewBox="0 0 171.68 129.43" width="171.68" height="129.43"><defs><style>.cls-1,.cls-2{fill:#164d81;stroke:#164d81;stroke-linecap:round;stroke-linejoin:round;}.cls-1{stroke-width:6px;}.cls-2{stroke-width:4.04px;}</style></defs><path class="cls-1" d="M1874.44,364.92c-15.45,0-52.29-4.82-24-50.16,0,0-1.54,19.76,12.88,25.08,0,0-5.66-8.59-2.57-18.38s21.19-31.9,12.4-46.1c0,0,19,6.94,19.54,47.13,0,0,11.34-5.15,10.82-15.46,0,0,10.34,17,0,30.4,0,0,15.44,2.58,19-4.12,0,0,2.41,31.61-30.92,31.61,0,0-10.74-4.3,1-24.91-5.15,4.38-18.94,8.72-16-21.9,0,0-10.53,22.93-1.8,33.75,0,0-8.85,5.73-20.44-6.12-.51,6.45,7.69,17.77,19.92,19.18" transform="translate(-1827.74 -272.36)"></path><path class="cls-2" d="M1926.77,374.53l-10.23,16.54c-3.38,5.48-8.68,8.71-14.31,8.71h-47.94c-5.62,0-10.92-3.23-14.31-8.71l-10.22-16.54Z" transform="translate(-1827.74 -272.36)"></path><polyline class="cls-2" points="109.88 102.16 99.03 102.16 94.92 108.81 105.58 111.06 109.69 103.14"></polyline><path class="cls-2" d="M1921.27,383.42h12a3.68,3.68,0,0,0,3.37-3.36l.75-4.55c1.07-6.51,5.57-11.35,11-11.83l49-4.37-2.79,6.79a8.88,8.88,0,0,1-6.55,5.7c-11.37,0-40.86-4.57-51.38,8.26" transform="translate(-1827.74 -272.36)"></path></svg>